<svg width="36" height="36" viewBox="0 0 36 36" fill="none" xmlns="http://www.w3.org/2000/svg">
<rect width="36" height="36" rx="7.5" fill="white"/>
<rect x="0.375" y="0.375" width="35.25" height="35.25" rx="7.125" stroke="#92A1AD" stroke-opacity="0.4" stroke-width="0.75"/>
<path d="M24.6666 14.8333H20.6666C20.3933 14.8333 20.1666 14.6067 20.1666 14.3333C20.1666 14.06 20.3933 13.8333 20.6666 13.8333H24.6666C24.94 13.8333 25.1666 14.06 25.1666 14.3333C25.1666 14.6067 24.94 14.8333 24.6666 14.8333Z" fill="#8B8B8B"/>
<path d="M14 14.8333H11.3333C11.06 14.8333 10.8333 14.6067 10.8333 14.3333C10.8333 14.06 11.06 13.8333 11.3333 13.8333H14C14.2733 13.8333 14.5 14.06 14.5 14.3333C14.5 14.6067 14.2733 14.8333 14 14.8333Z" fill="#8B8B8B"/>
<path d="M16.6666 17.1667C15.1066 17.1667 13.8333 15.8933 13.8333 14.3333C13.8333 12.7733 15.1066 11.5 16.6666 11.5C18.2266 11.5 19.5 12.7733 19.5 14.3333C19.5 15.8933 18.2266 17.1667 16.6666 17.1667ZM16.6666 12.5C15.6533 12.5 14.8333 13.32 14.8333 14.3333C14.8333 15.3467 15.6533 16.1667 16.6666 16.1667C17.68 16.1667 18.5 15.3467 18.5 14.3333C18.5 13.32 17.68 12.5 16.6666 12.5Z" fill="#8B8B8B"/>
<path d="M24.6667 22.1667H22C21.7267 22.1667 21.5 21.94 21.5 21.6667C21.5 21.3933 21.7267 21.1667 22 21.1667H24.6667C24.94 21.1667 25.1667 21.3933 25.1667 21.6667C25.1667 21.94 24.94 22.1667 24.6667 22.1667Z" fill="#8B8B8B"/>
<path d="M15.3333 22.1667H11.3333C11.06 22.1667 10.8333 21.94 10.8333 21.6667C10.8333 21.3933 11.06 21.1667 11.3333 21.1667H15.3333C15.6066 21.1667 15.8333 21.3933 15.8333 21.6667C15.8333 21.94 15.6066 22.1667 15.3333 22.1667Z" fill="#8B8B8B"/>
<path d="M19.3333 24.5C17.7733 24.5 16.5 23.2266 16.5 21.6666C16.5 20.1066 17.7733 18.8333 19.3333 18.8333C20.8933 18.8333 22.1667 20.1066 22.1667 21.6666C22.1667 23.2266 20.8933 24.5 19.3333 24.5ZM19.3333 19.8333C18.32 19.8333 17.5 20.6533 17.5 21.6666C17.5 22.68 18.32 23.5 19.3333 23.5C20.3467 23.5 21.1667 22.68 21.1667 21.6666C21.1667 20.6533 20.3467 19.8333 19.3333 19.8333Z" fill="#8B8B8B"/>
</svg>
